<svg xmlns="http://www.w3.org/2000/svg" width="18" height="18" viewBox="0 0 18 18"><path class="fill_path" fill="#FFF" fill-rule="nonzero" d="M9 3.6c-3.095 0-5.902 1.693-7.973 4.444a.641.641 0 0 0 0 .765c2.07 2.754 4.878 4.448 7.973 4.448 3.095 0 5.902-1.694 7.973-4.444a.641.641 0 0 0 0-.766C14.903 5.293 12.095 3.6 9 3.6zm.2 7.887A3.067 3.067 0 0 1 5.94 8.23a3.073 3.073 0 0 1 2.86-2.86 3.067 3.067 0 0 1 3.26 3.26 3.082 3.082 0 0 1-2.86 2.858zm-.093-1.413a1.648 1.648 0 0 1-1.753-1.753A1.658 1.658 0 0 1 8.896 6.78a1.648 1.648 0 0 1 1.753 1.753 1.658 1.658 0 0 1-1.542 1.541z"></path></svg>
