<svg xmlns="http://www.w3.org/2000/svg" width="24px" height="24px" viewBox="0 0 24 24" version="1.1"> <defs></defs> <g id="WEB/WAP" stroke="none" stroke-width="1" fill="none" fill-rule="evenodd"> <g id="WEB/WAP_Icon-SVG_assets" transform="translate(-321.000000, -660.000000)" fill="white"> <g id="others" transform="translate(19.000000, 581.000000)"> <g id="icon/more" transform="translate(302.000000, 79.000000)"> <path class="fill_path" d="M12,16 C13.1,16 14,16.9 14,18 C14,19.1 13.1,20 12,20 C10.9,20 10,19.1 10,18 C10,16.9 10.9,16 12,16 Z M12,14 C10.9,14 10,13.1 10,12 C10,10.9 10.9,10 12,10 C13.1,10 14,10.9 14,12 C14,13.1 13.1,14 12,14 Z M12,8 C10.9,8 10,7.1 10,6 C10,4.9 10.9,4 12,4 C13.1,4 14,4.9 14,6 C14,7.1 13.1,8 12,8 Z" id="Shape" transform="translate(12.000000, 12.000000) scale(-1, 1) rotate(90.000000) translate(-12.000000, -12.000000) "></path> </g> </g> </g> </g> </svg>
