<svg xmlns="http://www.w3.org/2000/svg" width="20" height="20" viewBox="0 0 20 20"><path class="fill_path" fill="#FFF" fill-rule="evenodd" d="M0 0h20v20H0V0zm10.707 12.48c.116.004.232 0 .377 0-.058.302-.095.553-.162.817-.136.633-.463.896-1.1.896-.836 0-1.668-.004-2.504.005-.087 0-.211.046-.253.113-.277.473-.538.955-.803 1.437-.012.02-.008.046-.012.07.029.01.041.013.054.013.952 0 1.904.005 2.855 0 .274 0 .55-.004.824-.041 1.13-.164 2.23-.838 2.52-2.3.216-1.073.39-2.15.58-3.226.302-1.713.604-3.427.902-5.14.054-.31.103-.625.157-.955-.447 0-.857-.005-1.27 0-.778.008-1.56-.017-2.334.046-1.32.104-2.318 1.043-2.562 2.35C7.773 7.645 7.59 8.73 7.4 9.81c-.07.407-.125.813-.03 1.224.17.75.766 1.294 1.623 1.395.567.063 1.142.037 1.713.05zm.39-1.621H9.547c-.394 0-.604-.344-.558-.733.062-.545.165-1.085.256-1.626.104-.603.215-1.202.323-1.805.1-.558.476-.88 1.03-.888.278 0 .551-.005.828.004.501.016.75.34.662.833-.227 1.316-.455 2.631-.674 3.947-.033.2-.123.268-.319.268z"></path></svg>
