<svg xmlns="http://www.w3.org/2000/svg" width="59" height="20" viewBox="0 0 59 20">
    <g fill="#FF3D00" fill-rule="evenodd">
        <path d="M43.043 14.264c.143-.807.271-1.564.407-2.321.45-2.572.9-5.143 1.336-7.714.128-.743-.329-1.279-1.086-1.315-.486-.021-.979-.014-1.464-.014-1.015.007-1.686.607-1.857 1.607-.543 3.157-1.1 6.314-1.658 9.464-.021.108-.15.279-.228.279-1.393-.021-2.779-.036-4.164-.129-.9-.057-1.622-.514-2.129-1.271-.029-.036-.064-.064-.114-.121-.193.207-.372.407-.565.592-.635.636-1.371 1.015-2.292.943-.65-.05-1.315 0-1.95-.114-1.136-.207-2.065-.771-2.622-1.893-.086.386-.178.764-.264 1.15-.193.922-.186.914-1.129.872-.671-.029-1.343-.122-1.921-.472-.443-.271-.822-.657-1.264-1.014-.129.136-.308.336-.493.521-.636.629-1.372.986-2.293.95-.879-.035-1.757.022-2.607-.293-1.515-.564-2.336-1.885-2.072-3.485.343-2.107.643-4.229 1.115-6.307.478-2.086 1.728-3.543 3.935-3.993.315-.065.636-.1.957-.1 1.822-.007 3.643-.007 5.465-.007.093 0 .178.014.3.028-.179 1.014-.357 2.007-.529 3-.407 2.293-.821 4.579-1.214 6.872-.036.214.05.478.157.671.271.493 1.114.836 1.671.743.208-2.436.686-4.822 1.193-7.193.45-2.1 1.729-3.571 3.95-4.021.315-.065.636-.1.957-.1C32.393.07 34.214.07 36.036.07c.078 0 .164.015.285.022-.107.621-.207 1.228-.314 1.828-.486 2.722-.978 5.443-1.464 8.165-.072.385.064.707.378.943.122.092.258.185.4.221.293.079.622.214.9.157.386-.078.243-.507.293-.778.557-3.072 1.093-6.143 1.629-9.222.078-.428.157-.864.243-1.314.114-.007.214-.022.321-.022 1.772 0 3.55-.007 5.322 0a4.63 4.63 0 0 1 2 .458c1.064.528 1.685 1.392 1.635 2.585-.035 1-.214 2-.378 2.993-.429 2.514-.879 5.029-1.322 7.536-.021.143-.035.286-.078.421-.029.072-.122.165-.186.165-.886.042-1.75.035-2.657.035zM21.093 2.93a1.077 1.077 0 0 0-.172-.029c-.9 0-1.807-.007-2.707 0-.9.007-1.578.557-1.743 1.436-.35 1.878-.685 3.757-1 5.635-.157.95.315 1.486 1.3 1.529.393.014.786.007 1.179 0 1.079-.007 1.721-.564 1.914-1.629.293-1.657.6-3.314.9-4.964.1-.65.207-1.307.329-1.978zm11.936.007c-.1-.022-.136-.036-.165-.036-.907 0-1.807-.014-2.714 0-.914.014-1.593.564-1.757 1.457a517.586 517.586 0 0 0-1 5.636c-.143.85.228 1.357 1.086 1.464.471.057.95.036 1.421.036 1.036-.007 1.693-.564 1.871-1.586l.836-4.586c.143-.778.279-1.571.422-2.385zM8.343 14.271c-.25 0-.45.008-.65 0-.986-.021-1.979.022-2.957-.085-1.479-.172-2.507-1.1-2.8-2.379-.165-.7-.072-1.393.05-2.086.328-1.842.643-3.692.993-5.535C3.4 1.957 5.12.357 7.4.179 8.736.07 10.086.114 11.429.1c.714-.007 1.421 0 2.192 0-.092.564-.178 1.1-.271 1.629-.514 2.921-1.036 5.842-1.557 8.764-.329 1.836-.629 3.671-1 5.5-.5 2.493-2.4 3.643-4.35 3.921-.472.065-.95.072-1.422.072-1.642.007-3.285 0-4.928 0-.022 0-.043-.007-.093-.022.007-.043 0-.085.021-.121.458-.822.908-1.643 1.386-2.45.072-.114.286-.193.436-.193 1.443-.014 2.878-.007 4.321-.007 1.1 0 1.665-.45 1.9-1.529.115-.45.179-.878.279-1.393zm-1.086-2.814v.043c.372 0 .743-.029 1.107.007.365.036.493-.114.55-.457.379-2.243.772-4.486 1.165-6.729.15-.842-.279-1.392-1.143-1.421-.479-.014-.95-.007-1.429-.007-.957.014-1.607.564-1.778 1.514-.186 1.029-.379 2.05-.558 3.079-.157.921-.335 1.843-.442 2.771-.079.664.285 1.1.964 1.179.514.064 1.043.021 1.564.021zM58.936.107c-.25 1.422-.5 2.793-.743 4.172a796.3 796.3 0 0 0-1.014 5.707c-.136.764.185 1.243.921 1.485.093.029.2.208.186.3-.129.822-.279 1.636-.429 2.5-1.264-.078-2.364-.464-3.15-1.55-.207.222-.386.429-.578.622-.629.614-1.35.986-2.265.936-.793-.043-1.585.035-2.364-.208-1.75-.542-2.629-1.921-2.321-3.721.35-2.071.65-4.15 1.114-6.2.443-1.929 1.586-3.336 3.586-3.871A5.399 5.399 0 0 1 53.143.1C55 .079 56.857.093 58.707.093c.057 0 .122.007.229.014zM55.65 2.93c-.143-.015-.229-.029-.321-.029-.858 0-1.715-.007-2.572 0-.886.014-1.564.543-1.721 1.407a395.438 395.438 0 0 0-1.022 5.814c-.121.729.25 1.229.993 1.322.479.064.972.05 1.457.05 1.115 0 1.757-.572 1.95-1.672.315-1.8.65-3.592.972-5.385.093-.493.171-.986.264-1.507z"/>
    </g>
</svg>
