<svg xmlns="http://www.w3.org/2000/svg" width="23" height="16" viewBox="0 0 23 16">
            <path class="fill_path" fill="white" fill-rule="evenodd" d="M23 6.853h-1.917V4.97h-1.916v1.882H17.25v1.882h1.917v1.883h1.916V8.735H23V6.853zm-7.162.004l-7.213-.004v2.823h4.122c-.223 1.195-1.441 3.375-4.601 3.375A5.057 5.057 0 0 1 3.096 8a5.057 5.057 0 0 1 5.05-5.051c1.582 0 2.641.662 3.247 1.234l2.21-2.092C12.184.79 10.346 0 8.147 0 3.642 0 0 3.577 0 8s3.642 8 8.146 8c5.604 0 8.49-4.568 7.692-9.143z"></path>
            </svg>
