<svg xmlns="http://www.w3.org/2000/svg" width="24" height="24" viewBox="0 0 24 24"><g id="Page-1" stroke="none" stroke-width="1" fill="none" fill-rule="evenodd"><g id="Artboard"><g id="group"><polygon id="Shape" points="0 0 24 0 24 24 0 24"></polygon><path fill="white" class="fill_path " d="M12,20 C11.816,20 11.632,19.949 11.47,19.848 C11.124,19.632 3,14.491 3,9 C3,6.243 5.243,4 8,4 C9.594,4 11.071,4.837 12,6.08 C12.929,4.837 14.406,4 16,4 C18.757,4 21,6.243 21,9 C21,14.491 12.876,19.632 12.53,19.848 C12.3710239,19.9472329 12.1874048,19.9998934 12,20" stroke-width="2" fill-rule="nonzero"></path></g></g></g></svg>
