<svg xmlns="http://www.w3.org/2000/svg" width="24px" height="24px" viewBox="0 0 24 24"><g id="player" stroke="none" stroke-width="1" fill="none" fill-rule="evenodd"><g id="player_now-playing" transform="translate(-25.000000, -470.000000)"><g id="queue" transform="translate(0.000000, 447.000000)"><g id="Track-Details-+-Options" transform="translate(25.000000, 14.000000)"><g id="lyrics" transform="translate(0.000000, 9.000000)"><rect id="Rectangle-2-Copy-95" x="0" y="0" width="24" height="24"></rect><path class="fill_path" d="M9.98941712,16.2957409 C9.83807833,18.3667811 8.11003512,20 6.00036621,20 C3.79122721,20 2.00036621,18.209139 2.00036621,16 C2.00036621,13.790861 3.79122721,12 6.00036621,12 C6.72880857,12 7.41175219,12.194718 8,12.5349439 L8,5 C8,4.44771525 8.44771525,4 9,4 L15.0979622,4 C15.6502469,4 16.0979622,4.44771525 16.0979622,5 C16.0979622,5.55228475 15.6502469,6 15.0979622,6 L10.5001831,6 C10.2240407,6 10.0001831,6.22385763 10.0001831,6.5 L10.0001831,16.2957409 L9.98941712,16.2957409 Z M6.01802357,18 C7.13254722,18 8,17.1045695 8,16 C8,14.8954305 7.13254722,14 6.01802357,14 C4.90349993,14 4,14.8954305 4,16 C4,17.1045695 4.90349993,18 6.01802357,18 Z M14.4850001,10.9700003 C13.9409996,10.9700003 13.5,10.5290007 13.5,9.98500013 C13.5,9.44099958 13.9409996,9 14.4850001,9 L21.0149999,9 C21.5590004,9 22,9.44099958 22,9.98500013 C22,10.5290007 21.5590004,10.9700003 21.0149999,10.9700003 L14.4850001,10.9700003 Z M14.4849997,16.9699993 C13.9409994,16.9699993 13.5,16.5289999 13.5,15.9849997 C13.5,15.4409994 13.9409994,15 14.4849997,15 L19.0150003,15 C19.5590006,15 20,15.4409994 20,15.9849997 C20,16.5289999 19.5590006,16.9699993 19.0150003,16.9699993 L14.4849997,16.9699993 Z" id="Combined-Shape" fill="#FFFFFF" fill-rule="nonzero"></path></g></g></g></g></g></svg>
