<svg xmlns="http://www.w3.org/2000/svg" width="22" height="22" viewBox="0 0 22 22"><g id="Page-1" stroke="none" stroke-width="1" fill="none" fill-rule="evenodd"><g id="profile_menu_320" transform="translate(-15.000000, -315.000000)"><g id="Group-2" transform="translate(15.000000, 185.000000)"><g id="icon/play" transform="translate(0.000000, 130.000000)"><polygon id="Shape" points="0 0 22 0 22 22 0 22"></polygon><path class="fill_path" d="M6,5.82166324 L6,16.1783169 C6,16.7306017 6.44771525,17.1783169 7,17.1783169 C7.19018558,17.1783169 7.37642758,17.1240827 7.53687937,17.0219759 L15.6742501,11.8435966 C16.1401901,11.5470863 16.2775401,10.9289982 15.9810298,10.4630582 C15.9024505,10.3395777 15.7977235,10.2348517 15.6742424,10.1562736 L7.53687162,4.97799929 C7.07092888,4.68149328 6.45284205,4.81884889 6.15633605,5.28479163 C6.05423248,5.44524171 6,5.63148078 6,5.82166324 Z" id="Shape" fill="#FFFFFF" fill-rule="nonzero"></path></g></g></g></g></svg>
