<svg xmlns="http://www.w3.org/2000/svg" width="20" height="20" viewBox="0 0 20 20"><g fill="none" fill-rule="evenodd"><path d="M0 0h20v20H0z"></path><path class="fill_path" fill="#FFF" d="M12.551 6.667L5.303 3.195a.35.35 0 0 1 .281-.64l10.204 4.112h1.545a1 1 0 0 1 1 1V16.5a1 1 0 0 1-1 1H2.667a1 1 0 0 1-1-1V7.667a1 1 0 0 1 1-1h9.884zM3.833 8.333a.5.5 0 0 0-.5.5v2.334a.5.5 0 0 0 .5.5h2v-.833a.833.833 0 1 1 1.667 0v.833h8.667a.5.5 0 0 0 .5-.5V8.833a.5.5 0 0 0-.5-.5H3.833zm10.75 7.5a1.25 1.25 0 1 0 0-2.5 1.25 1.25 0 0 0 0 2.5z"></path></g></svg>
