<svg xmlns="http://www.w3.org/2000/svg" width="24px" height="24px" viewBox="0 0 24 24"><g id="player" stroke="none" stroke-width="1" fill="none" fill-rule="evenodd"><g id="player_now-playing" transform="translate(-25.000000, -538.000000)"><g id="queue" transform="translate(0.000000, 447.000000)"><g id="row-4" transform="translate(14.000000, 64.000000)"><g id="icon/shuffle" transform="translate(11.000000, 27.000000)"><polygon id="Shape" points="0 0 24 0 24 24 0 24"></polygon><path class="fill_path" d="M10.6,9.2 L5.4,4 L4,5.4 L9.2,10.6 L10.6,9.2 Z M14.5,4 L16.5,6 L4,18.6 L5.4,20 L18,7.5 L20,9.5 L20,4 L14.5,4 Z M14.8,13.4 L13.4,14.8 L16.5,17.9 L14.5,19.9 L20,19.9 L20,14.4 L18,16.4 L14.8,13.4 Z" id="Shape" fill="#FFFFFF" fill-rule="nonzero"></path></g></g></g></g></g></svg>
