<svg xmlns="http://www.w3.org/2000/svg" width="24px" height="24px" viewBox="0 0 24 24"><g id="player" stroke="none" stroke-width="1" fill="none" fill-rule="evenodd"><g id="player_now-playing" transform="translate(-311.000000, -470.000000)"><g id="queue" transform="translate(0.000000, 447.000000)"><g id="Track-Details-+-Options" transform="translate(25.000000, 14.000000)"><g id="video" transform="translate(286.000000, 9.000000)"><rect id="Rectangle-2-Copy-91" x="0" y="0" width="24" height="24"></rect><path class="fill_path" d="M3,10 L14,10 C14.5522847,10 15,10.4477153 15,11 L15,18 C15,18.5522847 14.5522847,19 14,19 L3,19 C2.44771525,19 2,18.5522847 2,18 L2,11 C2,10.4477153 2.44771525,10 3,10 Z M16,11 L20.6153846,9.07692308 C21.1251859,8.86450587 21.7106597,9.10558331 21.9230769,9.61538462 C21.9738562,9.73725479 22,9.86797398 22,10 L22,19 C22,19.5522847 21.5522847,20 21,20 C20.867974,20 20.7372548,19.9738562 20.6153846,19.9230769 L16,18 L16,11 Z M5,9 C3.34314575,9 2,7.65685425 2,6 C2,4.34314575 3.34314575,3 5,3 C6.65685425,3 8,4.34314575 8,6 C8,7.65685425 6.65685425,9 5,9 Z M12,9 C10.3431458,9 9,7.65685425 9,6 C9,4.34314575 10.3431458,3 12,3 C13.6568542,3 15,4.34314575 15,6 C15,7.65685425 13.6568542,9 12,9 Z" id="Combined-Shape" fill="#FFFFFF"></path></g></g></g></g></g></svg>
